<svg width="112" height="10" viewBox="0 0 112 10" fill="none" xmlns="http://www.w3.org/2000/svg">
<path d="M0.758523 9V0.272727H6.6392V1.79403H2.60369V3.87358H6.33665V5.39489H2.60369V7.47869H6.65625V9H0.758523ZM9.06618 9V0.272727H10.9113V7.47869H14.6528V9H9.06618ZM16.8348 9V0.272727H22.7155V1.79403H18.6799V3.87358H22.4129V5.39489H18.6799V7.47869H22.7325V9H16.8348ZM30.9294 3.09375C30.8697 2.88636 30.7859 2.70312 30.6779 2.54403C30.57 2.3821 30.4379 2.24574 30.2816 2.13494C30.1282 2.02131 29.9521 1.93466 29.7532 1.875C29.5572 1.81534 29.3399 1.78551 29.1012 1.78551C28.6552 1.78551 28.2632 1.89631 27.9251 2.1179C27.5899 2.33949 27.3285 2.66193 27.141 3.08523C26.9535 3.50568 26.8598 4.01989 26.8598 4.62784C26.8598 5.2358 26.9521 5.75284 27.1367 6.17898C27.3214 6.60511 27.5828 6.9304 27.9208 7.15483C28.2589 7.37642 28.6581 7.48722 29.1183 7.48722C29.5359 7.48722 29.8924 7.41335 30.1879 7.26562C30.4862 7.11506 30.7135 6.90341 30.8697 6.63068C31.0288 6.35795 31.1083 6.03551 31.1083 5.66335L31.4833 5.71875H29.2333V4.32955H32.8853V5.42898C32.8853 6.19602 32.7234 6.85511 32.3995 7.40625C32.0757 7.95455 31.6296 8.37784 31.0615 8.67614C30.4933 8.97159 29.8427 9.11932 29.1098 9.11932C28.2916 9.11932 27.5728 8.93892 26.9535 8.57812C26.3342 8.21449 25.8512 7.69886 25.5046 7.03125C25.1609 6.3608 24.989 5.56534 24.989 4.64489C24.989 3.9375 25.0913 3.30682 25.2958 2.75284C25.5032 2.19602 25.793 1.72443 26.1652 1.33807C26.5373 0.951704 26.9706 0.65767 27.4649 0.455966C27.9592 0.254261 28.4947 0.153409 29.0714 0.153409C29.5657 0.153409 30.026 0.225852 30.4521 0.370739C30.8782 0.512784 31.2561 0.714489 31.5856 0.975852C31.918 1.23722 32.1893 1.5483 32.3995 1.90909C32.6098 2.26705 32.7447 2.66193 32.8044 3.09375H30.9294ZM36.4661 9H34.4888L37.5016 0.272727H39.8794L42.8879 9H40.9107L38.7246 2.26705H38.6564L36.4661 9ZM36.3425 5.5696H41.0129V7.00994H36.3425V5.5696ZM52.1981 0.272727V9H50.6043L46.8075 3.5071H46.7435V9H44.8984V0.272727H46.5177L50.2847 5.76136H50.3614V0.272727H52.1981ZM54.3502 1.79403V0.272727H61.5178V1.79403H58.8459V9H57.0221V1.79403H54.3502ZM67.3956 9V0.272727H69.2407V7.47869H72.9822V9H67.3956ZM77.0093 0.272727V9H75.1641V0.272727H77.0093ZM81.0641 0.272727L83.1735 6.90341H83.2545L85.3681 0.272727H87.4136L84.405 9H82.0272L79.0144 0.272727H81.0641ZM91.2692 0.272727V9H89.424V0.272727H91.2692ZM101.047 0.272727V9H99.4532L95.6564 3.5071H95.5924V9H93.7473V0.272727H95.3666L99.1336 5.76136H99.2103V0.272727H101.047ZM109.318 3.09375C109.259 2.88636 109.175 2.70312 109.067 2.54403C108.959 2.3821 108.827 2.24574 108.671 2.13494C108.517 2.02131 108.341 1.93466 108.142 1.875C107.946 1.81534 107.729 1.78551 107.49 1.78551C107.044 1.78551 106.652 1.89631 106.314 2.1179C105.979 2.33949 105.718 2.66193 105.53 3.08523C105.343 3.50568 105.249 4.01989 105.249 4.62784C105.249 5.2358 105.341 5.75284 105.526 6.17898C105.71 6.60511 105.972 6.9304 106.31 7.15483C106.648 7.37642 107.047 7.48722 107.507 7.48722C107.925 7.48722 108.281 7.41335 108.577 7.26562C108.875 7.11506 109.103 6.90341 109.259 6.63068C109.418 6.35795 109.497 6.03551 109.497 5.66335L109.872 5.71875H107.622V4.32955H111.274V5.42898C111.274 6.19602 111.112 6.85511 110.789 7.40625C110.465 7.95455 110.019 8.37784 109.451 8.67614C108.882 8.97159 108.232 9.11932 107.499 9.11932C106.681 9.11932 105.962 8.93892 105.343 8.57812C104.723 8.21449 104.24 7.69886 103.894 7.03125C103.55 6.3608 103.378 5.56534 103.378 4.64489C103.378 3.9375 103.48 3.30682 103.685 2.75284C103.892 2.19602 104.182 1.72443 104.554 1.33807C104.926 0.951704 105.36 0.65767 105.854 0.455966C106.348 0.254261 106.884 0.153409 107.46 0.153409C107.955 0.153409 108.415 0.225852 108.841 0.370739C109.267 0.512784 109.645 0.714489 109.975 0.975852C110.307 1.23722 110.578 1.5483 110.789 1.90909C110.999 2.26705 111.134 2.66193 111.193 3.09375H109.318Z" fill="black"/>
</svg>
