<svg width="31" height="10" viewBox="0 0 31 10" fill="none" xmlns="http://www.w3.org/2000/svg">
<path d="M4.25284 0.272727H6.0767V6.35795C6.0767 6.92045 5.95028 7.40909 5.69744 7.82386C5.44744 8.23864 5.09943 8.55824 4.65341 8.78267C4.20739 9.0071 3.68892 9.11932 3.09801 9.11932C2.57244 9.11932 2.09517 9.02699 1.66619 8.84233C1.24006 8.65483 0.901989 8.37074 0.651989 7.99006C0.401989 7.60653 0.278409 7.125 0.28125 6.54545H2.1179C2.12358 6.77557 2.17045 6.97301 2.25852 7.13778C2.34943 7.29972 2.47301 7.42472 2.62926 7.51278C2.78835 7.59801 2.97585 7.64062 3.19176 7.64062C3.41903 7.64062 3.6108 7.59233 3.76705 7.49574C3.92614 7.39631 4.04688 7.25142 4.12926 7.06108C4.21165 6.87074 4.25284 6.63636 4.25284 6.35795V0.272727ZM10.0665 9H8.08926L11.102 0.272727H13.4799L16.4884 9H14.5111L12.3251 2.26705H12.2569L10.0665 9ZM9.94295 5.5696H14.6134V7.00994H9.94295V5.5696ZM25.7986 0.272727V9H24.2048L20.4079 3.5071H20.344V9H18.4988V0.272727H20.1182L23.8852 5.76136H23.9619V0.272727H25.7986ZM30.1282 0.272727V9H28.2831V0.272727H30.1282Z" fill="black"/>
</svg>
